<?xml version="1.0" encoding="utf-8"?>
<!-- Generator: Adobe Illustrator 25.0.0, SVG Export Plug-In . SVG Version: 6.00 Build 0)  -->
<svg version="1.1" id="Layer_2" xmlns="http://www.w3.org/2000/svg" xmlns:xlink="http://www.w3.org/1999/xlink" x="0px" y="0px"
	 viewBox="0 0 107.04 80.68" style="enable-background:new 0 0 107.04 80.68;" xml:space="preserve">
<style type="text/css">
	.st0{fill:#FFFFFF;}
	.st1{fill:none;stroke:#FFFFFF;stroke-width:42.8715;stroke-miterlimit:10;}
	.st2{fill:none;stroke:#000000;stroke-width:42.8715;stroke-miterlimit:10;}
	.st3{fill:#609E50;}
</style>
<g>
	<g>
		<path class="st3" d="M2.61,6.97C3.12,5.65,5.05,6.01,6.14,6c1.22-0.02,2.44-0.32,3.43,0.61c1.05,0.99,0.77,2.33,0.7,3.62
			c-0.09,1.66-0.15,3.33-0.15,4.99c0,3.63-0.03,7.25-0.15,10.88c-0.01,0.18-0.01,0.36,0.07,0.52c0.78,1.66,3.61-3.65,3.87-4.13
			c1.25-2.33,2.11-4.84,2.82-7.38c0.39-1.41,0.73-2.83,1.02-4.26c0.21-1.03,0.46-2.07,0.48-3.12c0.05-2.08,2.41-1.75,3.89-1.81
			c1.07-0.04,3.81-0.23,3.67,1.48c-0.07,0.81-0.08,1.62-0.15,2.44c-0.16,1.93-0.52,3.85-1,5.73c-0.55,2.13-1.28,4.22-2.16,6.24
			c-0.86,2-2.07,3.84-2.95,5.82c-0.42,0.94,0.25,1.76,0.55,2.63c0.33,0.94,0.66,1.88,0.99,2.83c0.85,2.43,1.71,4.86,2.56,7.29
			c0.47,0.71,0.66,1.87,0.94,2.68c0.33,0.93,0.65,1.85,0.98,2.78c0.62,1.76,1.23,3.51,1.85,5.26c0.28,0.79-0.9,1.48-1.5,1.8
			c-0.76,0.39-1.62,0.53-2.47,0.51c-0.89-0.02-3.21-0.17-3.56-1.12c-1.03-2.74-2.05-5.49-3.03-8.25c-0.5-1.41-0.99-2.83-1.45-4.26
			c-0.23-0.71-0.46-1.43-0.68-2.14c-0.1-0.32-0.14-0.65-0.23-0.98c-0.06-0.25-0.11-0.56-0.29-0.76c-0.29-0.32-0.73,0.15-0.96,0.33
			c-0.49,0.38-0.98,0.75-1.5,1.08c-0.46,0.29-0.96,0.56-1.32,0.98c-0.43,0.51-0.22,1.59-0.23,2.22c-0.01,0.87-0.02,1.75-0.03,2.62
			c-0.02,1.75-0.04,3.49-0.07,5.24c-0.02,1.24,0.12,2.6-0.04,3.83c-0.1,0.79-2.09,1.02-2.75,1.13c-0.86,0.15-1.76,0.15-2.61-0.07
			c-0.77-0.19-2.28-0.7-2.24-1.66c0.05-1.17,0.02-2.36,0.02-3.53c0-3.26,0-6.52,0-9.78c0-4.07,0-8.14,0-12.21c0-3.76,0-7.53,0-11.29
			c0-1.49,0-2.99,0-4.48c0-0.59,0.02-1.18,0.02-1.76C2.46,8.07,2.42,7.46,2.61,6.97z"/>
	</g>
	<g>
		<path class="st3" d="M39.71,24.81c-0.01,0.04-0.01,0.09-0.01,0.13c-0.02,0.64,0.05,1.28,0.05,1.92c0,1.31-0.06,2.63-0.06,3.94
			c0,0.24-0.13,1.47,0.14,1.48c0.95,0.03,1.89-0.01,2.83-0.01c1.72,0,3.43,0,5.15-0.01c0.12,0,0.26,0,0.35,0.08
			c0.07,0.06,0.11,0.16,0.14,0.25c0.54,1.69,0.77,3.52,0.02,5.2c-0.18,0.41-0.97,0.37-1.54,0.37c-0.6,0-1.2,0-1.8,0
			c-1.29,0-2.58,0-3.86,0c-0.44,0-0.89,0-1.33,0c-0.02,0-0.05,0-0.06,0.02c-0.02,0.02-0.02,0.05-0.02,0.07
			c0,2.85,0.04,5.71-0.01,8.56c-0.01,0.44,0.62,0.23,0.89,0.23c0.39,0,0.78,0,1.17,0c0.75,0,1.51,0,2.26,0
			c1.55,0,3.12,0.08,4.67-0.04c0.26-0.02,0.55,0.01,0.74,0.19c0.11,0.11,0.18,0.26,0.23,0.41c0.57,1.55,0.47,3.19-0.03,4.74
			c-0.07,0.22-0.19,0.44-0.41,0.52c-0.12,0.05-0.26,0.05-0.39,0.04c-1.67-0.03-3.33-0.02-5-0.02c-1.69,0-3.38,0-5.08,0
			c-1.71,0-3.52,0.17-5.22,0.01c-2.18-0.21-1.47-2.94-1.47-4.43c0-0.85,0-1.71,0-2.56c0-1.07,0-2.14,0-3.21c0-1.22,0-2.43,0-3.65
			c0-1.29,0-2.57,0-3.86c0-1.29,0-2.57,0-3.86c0-1.21,0-2.43,0-3.64c0-1.07,0-2.14,0-3.21c0-0.85,0-1.71,0-2.56
			c0-0.56,0-1.13,0-1.69c0-0.4-0.01-0.73,0.28-1.04c0.52-0.54,1.24-0.48,1.92-0.48c0.44,0,0.88,0,1.31,0c1.22,0,2.44,0,3.66,0
			c1.37,0,2.74,0,4.11,0c1.53,0,3.07,0.01,4.6-0.02c0.14,0,0.28-0.01,0.42,0.04c0.67,0.23,0.85,1.73,0.91,2.32
			c0.11,1.03-0.1,2.08-0.48,3.04c-0.06,0.16-0.12,0.18-0.25,0.29c-0.29,0.25-1.67,0.21-2.17,0.2c-0.9-0.02-1.8-0.01-2.7,0
			c-0.77,0.01-1.55,0.03-2.32,0.04c-0.39,0.01-0.77,0.01-1.16,0.01c-0.13,0-0.31-0.02-0.41,0.08
			C39.74,24.73,39.72,24.77,39.71,24.81z"/>
	</g>
	<g>
		<path class="st3" d="M57.28,12.52c-0.02-0.09-0.17-0.12-0.29-0.13c-0.34-0.03-0.66-0.02-0.97-0.01c-0.6,0.01-1.2,0.04-1.8,0.04
			c-1.13-0.01-2.27-0.02-3.4-0.02c-4.03,0-8.07,0-12.1,0c-1.09,0-2.17,0.04-3.26,0.08c-0.82,0.03-1.66,0.2-2.48,0.03
			C31.23,12.14,31.78,9.52,31.7,8c-0.08-1.66,1.2-2.03,2.77-2.05c1.97-0.04,4.26-0.05,6.31-0.01c2.21,0.05,4.42,0.07,6.63,0.07
			c3.65,0,7.31,0.01,10.96,0.01c3.97,0,7.93,0.01,11.9,0.01c3.87,0,7.75,0.01,11.62,0.01c3.37,0,6.75,0.01,10.12,0.01
			c2.47,0,4.93,0,7.4,0.01c0.57,0,1.15-0.04,1.71-0.03c1.14,0.02,1.02-0.02,1.85,0.14c0.31,0.06,0.39,0.49,0.46,0.8
			c0.35,1.58,0.6,3.61-0.2,5.1c-0.07,0.14-0.18,0.26-0.33,0.32c-0.12,0.04-0.24,0.04-0.37,0.04c-1.28,0-2.56-0.01-3.85-0.01
			c-3.36,0-6.72,0-10.09,0c-3.91,0-7.81,0-11.72,0c-3.06,0-6.12,0-9.19,0c-0.33,0-0.74,0-1.09,0c-0.37,0-0.93-0.07-1.34-0.01
			c-0.36,0.06-0.3,0.65-0.3,1.04c0,0.86,0,1.72,0,2.58c0,2.99,0,5.98,0,8.96c0,3.84,0,7.68,0,11.51c0,3.75,0,7.51,0,11.26
			c0,2.73,0,5.47,0,8.2c0,0.75,0,1.5,0.01,2.25c0.01,0.81-2.38,0.94-3.01,1.01c-0.96,0.1-1.95,0.07-2.9-0.15
			c-0.48-0.11-1.14-0.15-1.51-0.53c-0.41-0.41-0.23-1-0.21-1.53c0.02-0.71,0-1.42,0-2.13c0-2.94-0.01-5.88-0.01-8.82
			c0-3.79-0.01-7.58-0.01-11.37c0-3.73-0.01-7.47-0.01-11.2c0-2.77-0.01-5.54-0.01-8.32c0-0.44,0.01-0.88,0.02-1.32
			C57.34,13.46,57.41,12.96,57.28,12.52z"/>
	</g>
	<g>
		<path class="st3" d="M57.86,68.67c-0.2,0.17-0.33,0.43-0.37,0.85c-0.12,1.17-0.26,2.34-0.35,3.5c-0.04,0.51-0.08,1.09,0.09,1.59
			c0.45,1.35,3.87,0.96,4.99,0.92c2.77-0.09,5.54-0.55,8.2-1.33c3.61-1.07,7.03-2.76,10.07-4.98c3.97-2.89,7.25-6.63,9.86-10.77
			c0.47-0.74,0.93-1.49,1.38-2.24c0.24-0.4,1.16-1.49,0.79-1.97c-0.1-0.13-0.26-0.2-0.42-0.25c-1.53-0.52-3.16-0.77-4.77-0.62
			c-1.59,0.15-2.71,0.52-3.61,1.86c-0.49,0.74-1.08,1.42-1.67,2.09c-2.22,2.5-4.88,4.61-7.77,6.3c-2.62,1.53-5.43,2.74-8.35,3.57
			c-1.48,0.42-2.98,0.74-4.51,0.95c-0.74,0.1-1.48,0.17-2.22,0.21C58.65,68.38,58.17,68.41,57.86,68.67z"/>
	</g>
	<g>
		<path class="st3" d="M88.07,47.06C79.21,47.06,72,40.42,72,32.27s7.21-14.78,16.07-14.78s16.07,6.63,16.07,14.78
			S96.93,47.06,88.07,47.06z M88.07,24.67c-4.9,0-8.89,3.41-8.89,7.6s3.99,7.6,8.89,7.6s8.89-3.41,8.89-7.6S92.97,24.67,88.07,24.67
			z"/>
	</g>
</g>
</svg>
